<svg width="20" height="20" viewBox="0 0 20 20" fill="none" xmlns="http://www.w3.org/2000/svg">
<path d="M10 2.5C5.865 2.5 2.5 5.865 2.5 10C2.5 14.135 5.865 17.5 10 17.5C14.135 17.5 17.5 14.135 17.5 10C17.5 5.865 14.135 2.5 10 2.5ZM10 3.75C13.4594 3.75 16.25 6.54063 16.25 10C16.2515 11.4962 15.715 12.9431 14.7383 14.0766C13.7617 15.2101 12.41 15.9547 10.93 16.1744V11.8225H12.71L12.9894 10.0144H10.93V9.02688C10.93 8.27688 11.1769 7.61 11.8787 7.61H13.0069V6.0325C12.8088 6.00563 12.3894 5.9475 11.5969 5.9475C9.94187 5.9475 8.97187 6.82125 8.97187 8.8125V10.0144H7.27063V11.8225H8.97187V16.1588C7.51234 15.9185 6.18577 15.1672 5.22918 14.039C4.27259 12.9108 3.74831 11.4792 3.75 10C3.75 6.54063 6.54063 3.75 10 3.75Z" fill="#111827"/>
</svg>
