<svg width="221" height="55" viewBox="0 0 221 55" fill="none" xmlns="http://www.w3.org/2000/svg">
<path d="M22.1294 48.0998C33.3654 48.0998 42.474 38.9912 42.474 27.7552C42.474 16.5192 33.3654 7.41064 22.1294 7.41064C10.8934 7.41064 1.78479 16.5192 1.78479 27.7552C1.78479 38.9912 10.8934 48.0998 22.1294 48.0998Z" stroke="#4F46E5" stroke-width="3.05169"/>
<path d="M22.1293 38.944C28.3091 38.944 33.3189 33.9343 33.3189 27.7545C33.3189 21.5747 28.3091 16.5649 22.1293 16.5649C15.9495 16.5649 10.9398 21.5747 10.9398 27.7545C10.9398 33.9343 15.9495 38.944 22.1293 38.944Z" stroke="#4F46E5" stroke-width="3.05169"/>
<path d="M22.1294 31.0612C23.9552 31.0612 25.4354 29.5811 25.4354 27.7552C25.4354 25.9294 23.9552 24.4492 22.1294 24.4492C20.3035 24.4492 18.8234 25.9294 18.8234 27.7552C18.8234 29.5811 20.3035 31.0612 22.1294 31.0612Z" fill="#4F46E5"/>
<path d="M40.9481 15.8029C42.7739 15.8029 44.2541 14.3228 44.2541 12.4969C44.2541 10.6711 42.7739 9.19092 40.9481 9.19092C39.1222 9.19092 37.6421 10.6711 37.6421 12.4969C37.6421 14.3228 39.1222 15.8029 40.9481 15.8029Z" fill="#F59E0B"/>
<path d="M79.7773 13.2075V19.0483H62.7705V25.5767H78.2314V31.4175H62.7705V40.6938H56.9297V13.2075H79.7773Z" fill="black" stroke="black" stroke-width="0.343581"/>
<path d="M83.0419 16.2998C89.7499 16.2999 95.2392 21.7891 95.2392 28.4971C95.2391 35.2049 89.7498 40.6942 83.0419 40.6943C76.334 40.6943 70.8448 35.205 70.8447 28.4971C70.8447 21.789 76.3339 16.2998 83.0419 16.2998ZM83.0419 22.1406C79.5456 22.1406 76.6855 25.0007 76.6855 28.4971C76.6856 31.9933 79.5457 34.8535 83.0419 34.8535C86.5381 34.8534 89.3983 31.9932 89.3984 28.4971C89.3984 25.0008 86.5382 22.1407 83.0419 22.1406Z" fill="black" stroke="black" stroke-width="0.343581"/>
<path d="M109.154 16.2998V34.6816C109.154 36.254 109.547 37.4647 110.364 38.2812C111.181 39.0979 112.392 39.4912 113.964 39.4912C115.537 39.4911 116.748 39.0978 117.564 38.2812C118.381 37.4647 118.774 36.254 118.774 34.6816V16.2998H124.615V34.6816C124.615 42.3169 118.508 46.8786 113.964 46.8789C109.421 46.8789 103.313 42.3171 103.313 34.6816V16.2998H109.154Z" fill="black" stroke="black" stroke-width="0.343581"/>
<path d="M130.972 16.2998C137.679 16.2999 143.169 21.7891 143.169 28.4971C143.169 35.2049 137.679 40.6942 130.972 40.6943C124.264 40.6943 118.774 35.205 118.774 28.4971C118.774 21.789 124.264 16.2998 130.972 16.2998ZM130.972 22.1406C127.475 22.1406 124.615 25.0007 124.615 28.4971C124.615 31.9933 127.475 34.8535 130.972 34.8535C134.468 34.8534 137.328 31.9932 137.328 28.4971C137.328 25.0008 134.468 22.1407 130.972 22.1406Z" fill="black" stroke="black" stroke-width="0.343581"/>
<path d="M152.445 16.2998V40.6943H146.604V16.2998H152.445Z" fill="black" stroke="black" stroke-width="0.343581"/>
<path d="M167.906 16.2998V34.6816C167.906 36.254 168.3 37.4647 169.116 38.2812C169.933 39.0979 171.144 39.4912 172.717 39.4912C174.289 39.4911 175.5 39.0978 176.316 38.2812C177.133 37.4647 177.526 36.254 177.526 34.6816V16.2998H183.367V34.6816C183.367 42.3169 177.26 46.8786 172.717 46.8789C168.173 46.8789 162.066 42.3171 162.065 34.6816V16.2998H167.906Z" fill="black" stroke="black" stroke-width="0.343581"/>
<path d="M198.89 16.2998L206.575 33.2061L206.731 33.5508L206.887 33.2061L214.572 16.2998H220.383L209.71 40.6943H203.751L193.079 16.2998H198.89Z" fill="black" stroke="black" stroke-width="0.343581"/>
</svg>
