<svg width="128" height="129" viewBox="0 0 128 129" fill="none" xmlns="http://www.w3.org/2000/svg">
<g clip-path="url(#clip0_22_36)">
<path d="M64 108.493C88.3005 108.493 108 88.7931 108 64.4926C108 40.1921 88.3005 20.4926 64 20.4926C39.6995 20.4926 20 40.1921 20 64.4926C20 88.7931 39.6995 108.493 64 108.493Z" stroke="#4F46E5" stroke-width="8"/>
<path d="M64 86.4926C76.1503 86.4926 86 76.6429 86 64.4926C86 52.3424 76.1503 42.4926 64 42.4926C51.8497 42.4926 42 52.3424 42 64.4926C42 76.6429 51.8497 86.4926 64 86.4926Z" fill="#4F46E5"/>
<path d="M77.5081 33.2271C77.8859 32.1891 77.3507 31.0414 76.3127 30.6637C75.2748 30.2859 74.1271 30.821 73.7493 31.859L64.8568 56.291C64.479 57.329 65.0142 58.4766 66.0521 58.8544C67.0901 59.2322 68.2378 58.697 68.6156 57.6591L77.5081 33.2271Z" fill="black"/>
<path d="M69 8.49261H59C57.3431 8.49261 56 9.83576 56 11.4926V13.4926C56 15.1495 57.3431 16.4926 59 16.4926H69C70.6569 16.4926 72 15.1495 72 13.4926V11.4926C72 9.83576 70.6569 8.49261 69 8.49261Z" fill="#4F46E5"/>
<path d="M98 32.4926C101.314 32.4926 104 29.8063 104 26.4926C104 23.1789 101.314 20.4926 98 20.4926C94.6863 20.4926 92 23.1789 92 26.4926C92 29.8063 94.6863 32.4926 98 32.4926Z" fill="#F59E0B"/>
</g>
<defs>
<clipPath id="clip0_22_36">
<rect width="128" height="128" fill="white" transform="translate(0 0.492615)"/>
</clipPath>
</defs>
</svg>
