<svg width="128" height="129" viewBox="0 0 128 129" fill="none" xmlns="http://www.w3.org/2000/svg">
<g clip-path="url(#clip0_22_81)">
<path d="M18 110.493H110" stroke="#111827" stroke-width="6" stroke-linecap="round"/>
<path d="M22 18.4926V110.493" stroke="#111827" stroke-width="6" stroke-linecap="round"/>
<path d="M41 70.4926H33C31.3431 70.4926 30 71.8358 30 73.4926V97.4926C30 99.1495 31.3431 100.493 33 100.493H41C42.6569 100.493 44 99.1495 44 97.4926V73.4926C44 71.8358 42.6569 70.4926 41 70.4926Z" fill="#4F46E5"/>
<path d="M65 46.4926H57C55.3431 46.4926 54 47.8358 54 49.4926V97.4926C54 99.1495 55.3431 100.493 57 100.493H65C66.6569 100.493 68 99.1495 68 97.4926V49.4926C68 47.8358 66.6569 46.4926 65 46.4926Z" fill="#4F46E5"/>
<path d="M89 30.4926H81C79.3431 30.4926 78 31.8358 78 33.4926V97.4926C78 99.1495 79.3431 100.493 81 100.493H89C90.6569 100.493 92 99.1495 92 97.4926V33.4926C92 31.8358 90.6569 30.4926 89 30.4926Z" fill="#4F46E5"/>
<path d="M37 70.4926L61 46.4926L85 30.4926" stroke="#F59E0B" stroke-width="6" stroke-linecap="round" stroke-linejoin="round"/>
<path d="M85 35.4926C87.7614 35.4926 90 33.254 90 30.4926C90 27.7312 87.7614 25.4926 85 25.4926C82.2386 25.4926 80 27.7312 80 30.4926C80 33.254 82.2386 35.4926 85 35.4926Z" fill="#F59E0B"/>
</g>
<defs>
<clipPath id="clip0_22_81">
<rect width="128" height="128" fill="white" transform="translate(0 0.492615)"/>
</clipPath>
</defs>
</svg>
