<svg width="200" height="201" viewBox="0 0 200 201" fill="none" xmlns="http://www.w3.org/2000/svg">
<g clip-path="url(#clip0_29_1049)">
<path d="M52.0833 107.098C52.0833 86.2646 68.75 69.5979 89.5833 69.5979H102.083V86.2646H89.5833C77.0833 86.2646 68.75 94.5979 68.75 107.098V115.431C68.75 127.931 60.4167 136.265 47.9167 136.265H35.4167V119.598H47.9167C52.0833 119.598 52.0833 115.431 52.0833 107.098Z" fill="#4F46E5"/>
<path d="M114.583 107.098C114.583 86.2646 131.25 69.5979 152.083 69.5979H164.583V86.2646H152.083C139.583 86.2646 131.25 94.5979 131.25 107.098V115.431C131.25 127.931 122.917 136.265 110.417 136.265H97.9167V119.598H110.417C114.583 119.598 114.583 115.431 114.583 107.098Z" fill="#4F46E5"/>
<path d="M156.25 88.348C162.003 88.348 166.667 83.6843 166.667 77.9313C166.667 72.1783 162.003 67.5146 156.25 67.5146C150.497 67.5146 145.833 72.1783 145.833 77.9313C145.833 83.6843 150.497 88.348 156.25 88.348Z" fill="#F59E0B"/>
</g>
<defs>
<clipPath id="clip0_29_1049">
<rect width="200" height="200" fill="white" transform="translate(0 0.8479)"/>
</clipPath>
</defs>
</svg>
