<svg width="129" height="129" viewBox="0 0 129 129" fill="none" xmlns="http://www.w3.org/2000/svg">
<g clip-path="url(#clip0_22_62)">
<path d="M98.4926 18.4926H30.4926C26.0743 18.4926 22.4926 22.0743 22.4926 26.4926V102.493C22.4926 106.911 26.0743 110.493 30.4926 110.493H98.4926C102.911 110.493 106.493 106.911 106.493 102.493V26.4926C106.493 22.0743 102.911 18.4926 98.4926 18.4926Z" stroke="#4F46E5" stroke-width="6"/>
<path d="M76.4926 6.49255H52.4926C49.1788 6.49255 46.4926 9.17885 46.4926 12.4926V20.4926C46.4926 23.8063 49.1788 26.4926 52.4926 26.4926H76.4926C79.8063 26.4926 82.4926 23.8063 82.4926 20.4926V12.4926C82.4926 9.17885 79.8063 6.49255 76.4926 6.49255Z" fill="#4F46E5"/>
<path d="M92.4926 36.4926H44.4926C42.2834 36.4926 40.4926 38.2834 40.4926 40.4926C40.4926 42.7017 42.2834 44.4926 44.4926 44.4926H92.4926C94.7017 44.4926 96.4926 42.7017 96.4926 40.4926C96.4926 38.2834 94.7017 36.4926 92.4926 36.4926Z" fill="#4F46E5"/>
<path d="M92.4926 58.4926H44.4926C42.2834 58.4926 40.4926 60.2834 40.4926 62.4926C40.4926 64.7017 42.2834 66.4926 44.4926 66.4926H92.4926C94.7017 66.4926 96.4926 64.7017 96.4926 62.4926C96.4926 60.2834 94.7017 58.4926 92.4926 58.4926Z" fill="#4F46E5"/>
<path d="M72.4926 80.4926H44.4926C42.2834 80.4926 40.4926 82.2834 40.4926 84.4926C40.4926 86.7017 42.2834 88.4926 44.4926 88.4926H72.4926C74.7017 88.4926 76.4926 86.7017 76.4926 84.4926C76.4926 82.2834 74.7017 80.4926 72.4926 80.4926Z" fill="#4F46E5"/>
<path d="M98.4926 40.4926C101.806 40.4926 104.493 37.8063 104.493 34.4926C104.493 31.1788 101.806 28.4926 98.4926 28.4926C95.1788 28.4926 92.4926 31.1788 92.4926 34.4926C92.4926 37.8063 95.1788 40.4926 98.4926 40.4926Z" fill="#F59E0B"/>
<path d="M92.4926 80.4926L98.4926 88.4926L112.493 70.4926" stroke="#111827" stroke-width="6" stroke-linecap="round" stroke-linejoin="round"/>
</g>
<defs>
<clipPath id="clip0_22_62">
<rect width="128" height="128" fill="white" transform="translate(0.492554 0.492554)"/>
</clipPath>
</defs>
</svg>
