<svg width="20" height="20" viewBox="0 0 20 20" fill="none" xmlns="http://www.w3.org/2000/svg">
<path d="M11.6667 10L8.75 11.6667V8.33337L11.6667 10Z" fill="#111827" stroke="#111827" stroke-width="1.25" stroke-linecap="round" stroke-linejoin="round"/>
<path d="M1.66663 10.5892V9.41004C1.66663 6.99754 1.66663 5.79087 2.42079 5.01504C3.17579 4.23837 4.36413 4.20504 6.73996 4.13754C7.86496 4.10587 9.01496 4.08337 9.99996 4.08337C10.9841 4.08337 12.1341 4.10587 13.26 4.13754C15.6358 4.20504 16.8241 4.23837 17.5783 5.01504C18.3333 5.79087 18.3333 6.99837 18.3333 9.41004V10.5892C18.3333 13.0025 18.3333 14.2084 17.5791 14.985C16.8241 15.7609 15.6366 15.795 13.26 15.8617C12.135 15.8942 10.985 15.9167 9.99996 15.9167C8.91309 15.9134 7.82632 15.8951 6.73996 15.8617C4.36413 15.795 3.17579 15.7617 2.42079 14.985C1.66663 14.2084 1.66663 13.0017 1.66663 10.59V10.5892Z" stroke="#111827" stroke-width="1.25"/>
<path d="M8.75 8.17085V11.8358C8.74997 11.9004 8.76744 11.9637 8.80055 12.0191C8.83365 12.0745 8.88115 12.1199 8.938 12.1505C8.99485 12.1811 9.05892 12.1957 9.1234 12.1927C9.18787 12.1898 9.25034 12.1694 9.30417 12.1338L12.0529 10.3171C12.102 10.2847 12.1424 10.2407 12.1704 10.1889C12.1984 10.1372 12.2132 10.0793 12.2134 10.0205C12.2137 9.96163 12.1994 9.90364 12.1718 9.85166C12.1443 9.79968 12.1043 9.75531 12.0554 9.72251L9.30625 7.87418C9.25252 7.83808 9.18999 7.81725 9.12534 7.81394C9.06069 7.81063 8.99636 7.82496 8.93923 7.85539C8.88209 7.88582 8.8343 7.93121 8.80097 7.9867C8.76764 8.04219 8.75002 8.1057 8.75 8.17043V8.17085Z" stroke="#111827" stroke-linejoin="round"/>
</svg>
